<svg width="24" height="25" viewBox="0 0 24 25" fill="none" xmlns="http://www.w3.org/2000/svg">
<path d="M23.0463 16.3296L16.4091 12.5L23.0463 8.67041C23.4203 8.45459 23.5482 7.97705 23.3324 7.60303L21.7689 4.89648C21.5531 4.52295 21.0751 4.39453 20.7011 4.61035L14.0639 8.43994V0.78125C14.0639 0.349609 13.7138 0 13.2821 0H10.1552C9.72352 0 9.37342 0.349609 9.37342 0.78125V8.44043L2.73622 4.61084C2.36219 4.39502 1.88417 4.52344 1.66835 4.89697L0.104869 7.60303C-0.110951 7.97656 0.0169783 8.45459 0.391002 8.67041L7.02821 12.5L0.391002 16.3296C0.0169783 16.5454 -0.110951 17.0234 0.104869 17.397L1.66835 20.1035C1.88417 20.4771 2.36219 20.605 2.73622 20.3896L9.37342 16.5601V24.2188C9.37342 24.6504 9.72352 25 10.1552 25H13.2821C13.7138 25 14.0639 24.6504 14.0639 24.2188V16.5596L20.7011 20.3892C21.0751 20.605 21.5531 20.4771 21.7689 20.103L23.3324 17.3965C23.5482 17.0229 23.4203 16.5454 23.0463 16.3296Z" fill="#8B0000"/>
</svg>
