<svg width="23" height="22" viewBox="0 0 23 22" fill="none" xmlns="http://www.w3.org/2000/svg">
<path d="M11.9265 5.32711C8.82104 5.32711 6.31616 7.83071 6.31616 10.9346C6.31616 14.0385 8.82104 16.5421 11.9265 16.5421C15.032 16.5421 17.5369 14.0385 17.5369 10.9346C17.5369 7.83071 15.032 5.32711 11.9265 5.32711ZM11.9265 14.5802C9.91968 14.5802 8.27905 12.9453 8.27905 10.9346C8.27905 8.9239 9.91479 7.289 11.9265 7.289C13.9382 7.289 15.574 8.9239 15.574 10.9346C15.574 12.9453 13.9333 14.5802 11.9265 14.5802ZM19.075 5.09774C19.075 5.8249 18.489 6.40566 17.7664 6.40566C17.0388 6.40566 16.4578 5.82002 16.4578 5.09774C16.4578 4.37545 17.0437 3.78981 17.7664 3.78981C18.489 3.78981 19.075 4.37545 19.075 5.09774ZM22.7908 6.42518C22.7078 4.67315 22.3074 3.12121 21.0232 1.84256C19.7439 0.56392 18.1912 0.163734 16.4382 0.0758884C14.6316 -0.0265982 9.21655 -0.0265982 7.40991 0.0758884C5.66187 0.158854 4.10913 0.55904 2.82495 1.83768C1.54077 3.11633 1.14526 4.66827 1.05737 6.4203C0.954834 8.22602 0.954834 13.6383 1.05737 15.444C1.14038 17.196 1.54077 18.748 2.82495 20.0266C4.10913 21.3053 5.65698 21.7055 7.40991 21.7933C9.21655 21.8958 14.6316 21.8958 16.4382 21.7933C18.1912 21.7103 19.7439 21.3102 21.0232 20.0266C22.3025 18.748 22.7029 17.196 22.7908 15.444C22.8933 13.6383 22.8933 8.2309 22.7908 6.42518ZM20.4568 17.3815C20.0759 18.338 19.3386 19.075 18.3767 19.4605C16.9363 20.0315 13.5183 19.8997 11.9265 19.8997C10.3347 19.8997 6.91187 20.0266 5.47632 19.4605C4.51929 19.0798 3.78198 18.3429 3.39624 17.3815C2.82495 15.9418 2.95679 12.5256 2.95679 10.9346C2.95679 9.34361 2.82983 5.92251 3.39624 4.4877C3.7771 3.53115 4.5144 2.79423 5.47632 2.40868C6.91675 1.83768 10.3347 1.96945 11.9265 1.96945C13.5183 1.96945 16.9412 1.84256 18.3767 2.40868C19.3337 2.78935 20.071 3.52627 20.4568 4.4877C21.0281 5.92739 20.8962 9.34361 20.8962 10.9346C20.8962 12.5256 21.0281 15.9467 20.4568 17.3815Z" fill="black"/>
</svg>
