<svg width="23" height="22" viewBox="0 0 23 22" fill="none" xmlns="http://www.w3.org/2000/svg">
<path d="M19.5791 3.17611C17.5332 1.12638 14.8086 -0.000976562 11.9131 -0.000976562C5.93652 -0.000976562 1.07324 4.85982 1.07324 10.8333C1.07324 12.7415 1.57129 14.6058 2.51855 16.2505L0.980469 21.8628L6.72754 20.3548C8.30957 21.2186 10.0918 21.6725 11.9082 21.6725H11.9131C17.8848 21.6725 22.8555 16.8117 22.8555 10.8382C22.8555 7.94418 21.625 5.22584 19.5791 3.17611ZM11.9131 19.8473C10.292 19.8473 8.70508 19.4129 7.32324 18.593L6.99609 18.3978L3.58789 19.2909L4.49609 15.9674L4.28125 15.6258C3.37793 14.191 2.9043 12.5366 2.9043 10.8333C2.9043 5.87005 6.94727 1.82914 11.918 1.82914C14.3252 1.82914 16.5859 2.76616 18.2852 4.46939C19.9844 6.17263 21.0293 8.43221 21.0244 10.8382C21.0244 15.8064 16.8789 19.8473 11.9131 19.8473ZM16.8545 13.1027C16.5859 12.966 15.2529 12.3121 15.0039 12.2242C14.7549 12.1315 14.5742 12.0876 14.3936 12.3609C14.2129 12.6342 13.6953 13.2393 13.5342 13.4248C13.3779 13.6054 13.2168 13.6298 12.9482 13.4931C11.3564 12.6976 10.3115 12.0729 9.26172 10.2721C8.9834 9.79382 9.54004 9.82798 10.0576 8.79336C10.1455 8.61278 10.1016 8.45661 10.0332 8.31997C9.96484 8.18332 9.42285 6.85099 9.19824 6.30927C8.97852 5.7822 8.75391 5.85541 8.58789 5.84564C8.43164 5.83588 8.25098 5.83588 8.07031 5.83588C7.88965 5.83588 7.59668 5.90421 7.34766 6.17263C7.09863 6.44592 6.40039 7.09989 6.40039 8.43221C6.40039 9.76454 7.37207 11.0529 7.50391 11.2335C7.64063 11.4141 9.41309 14.1471 12.1328 15.3232C13.8516 16.065 14.5254 16.1285 15.3848 16.0016C15.9072 15.9235 16.9863 15.3476 17.2109 14.7132C17.4355 14.0787 17.4355 13.537 17.3672 13.4248C17.3037 13.3028 17.123 13.2344 16.8545 13.1027Z" fill="black"/>
</svg>
